solid OpenSCAD_Model
  facet normal -1 0 0
    outer loop
      vertex -123 -74.48 -77.5
      vertex -123 -74.48 77.5
      vertex -123 74.48 -77.5
    endloop
  endfacet
  facet normal -1 0 0
    outer loop
      vertex -123 74.48 -77.5
      vertex -123 -74.48 77.5
      vertex -123 74.48 77.5
    endloop
  endfacet
  facet normal 0 -1 0
    outer loop
      vertex -123 -74.48 77.5
      vertex -123 -74.48 -77.5
      vertex 123 -74.48 -77.5
    endloop
  endfacet
  facet normal 0 -1 0
    outer loop
      vertex 123 -74.48 77.5
      vertex -123 -74.48 77.5
      vertex 123 -74.48 -77.5
    endloop
  endfacet
  facet normal 0 0 -1
    outer loop
      vertex -123 -74.48 -77.5
      vertex -123 74.48 -77.5
      vertex 123 -74.48 -77.5
    endloop
  endfacet
  facet normal 0 0 -1
    outer loop
      vertex 123 -74.48 -77.5
      vertex -123 74.48 -77.5
      vertex 123 74.48 -77.5
    endloop
  endfacet
  facet normal 0 1 0
    outer loop
      vertex -123 74.48 -77.5
      vertex -123 74.48 77.5
      vertex 123 74.48 -77.5
    endloop
  endfacet
  facet normal 0 1 0
    outer loop
      vertex 123 74.48 -77.5
      vertex -123 74.48 77.5
      vertex 123 74.48 77.5
    endloop
  endfacet
  facet normal 0 0 1
    outer loop
      vertex -118.08 -70.0112 77.5
      vertex -123 -74.48 77.5
      vertex 123 -74.48 77.5
    endloop
  endfacet
  facet normal 0 0 1
    outer loop
      vertex -123 74.48 77.5
      vertex -123 -74.48 77.5
      vertex -118.08 -70.0112 77.5
    endloop
  endfacet
  facet normal 0 0 1
    outer loop
      vertex -118.08 70.0112 77.5
      vertex 118.08 70.0112 77.5
      vertex -123 74.48 77.5
    endloop
  endfacet
  facet normal 0 0 1
    outer loop
      vertex -123 74.48 77.5
      vertex -118.08 -70.0112 77.5
      vertex -118.08 70.0112 77.5
    endloop
  endfacet
  facet normal 0 0 1
    outer loop
      vertex 123 74.48 77.5
      vertex 118.08 70.0112 77.5
      vertex 123 -74.48 77.5
    endloop
  endfacet
  facet normal 0 0 1
    outer loop
      vertex 123 74.48 77.5
      vertex -123 74.48 77.5
      vertex 118.08 70.0112 77.5
    endloop
  endfacet
  facet normal 0 0 1
    outer loop
      vertex 118.08 70.0112 77.5
      vertex 118.08 -70.0112 77.5
      vertex 123 -74.48 77.5
    endloop
  endfacet
  facet normal 0 0 1
    outer loop
      vertex 118.08 -70.0112 77.5
      vertex -118.08 -70.0112 77.5
      vertex 123 -74.48 77.5
    endloop
  endfacet
  facet normal 1 0 0
    outer loop
      vertex 123 -74.48 77.5
      vertex 123 -74.48 -77.5
      vertex 123 74.48 -77.5
    endloop
  endfacet
  facet normal 1 0 0
    outer loop
      vertex 123 74.48 77.5
      vertex 123 -74.48 77.5
      vertex 123 74.48 -77.5
    endloop
  endfacet
  facet normal 1 0 0
    outer loop
      vertex -118.08 70.0112 -73.3269
      vertex -118.08 70.0112 77.5
      vertex -118.08 -70.0112 77.5
    endloop
  endfacet
  facet normal 1 0 0
    outer loop
      vertex -118.08 -70.0112 -73.3269
      vertex -118.08 70.0112 -73.3269
      vertex -118.08 -70.0112 77.5
    endloop
  endfacet
  facet normal 0 1 0
    outer loop
      vertex 118.08 -70.0112 77.5
      vertex 118.08 -70.0112 -73.3269
      vertex -118.08 -70.0112 77.5
    endloop
  endfacet
  facet normal 0 1 0
    outer loop
      vertex -118.08 -70.0112 77.5
      vertex 118.08 -70.0112 -73.3269
      vertex -118.08 -70.0112 -73.3269
    endloop
  endfacet
  facet normal -1 0 0
    outer loop
      vertex 118.08 70.0112 77.5
      vertex 118.08 70.0112 -73.3269
      vertex 118.08 -70.0112 77.5
    endloop
  endfacet
  facet normal -1 0 0
    outer loop
      vertex 118.08 -70.0112 77.5
      vertex 118.08 70.0112 -73.3269
      vertex 118.08 -70.0112 -73.3269
    endloop
  endfacet
  facet normal 0 -1 0
    outer loop
      vertex 118.08 70.0112 -73.3269
      vertex 118.08 70.0112 77.5
      vertex -118.08 70.0112 77.5
    endloop
  endfacet
  facet normal 0 -1 0
    outer loop
      vertex -118.08 70.0112 -73.3269
      vertex 118.08 70.0112 -73.3269
      vertex -118.08 70.0112 77.5
    endloop
  endfacet
  facet normal 0 0 1
    outer loop
      vertex 118.08 -70.0112 -73.3269
      vertex 118.08 70.0112 -73.3269
      vertex -118.08 70.0112 -73.3269
    endloop
  endfacet
  facet normal 0 0 1
    outer loop
      vertex -118.08 -70.0112 -73.3269
      vertex 118.08 -70.0112 -73.3269
      vertex -118.08 70.0112 -73.3269
    endloop
  endfacet
endsolid OpenSCAD_Model
